<?xml version="1.0" standalone="no"?>
<!DOCTYPE svg PUBLIC "-//W3C//DTD SVG 20010904//EN"
 "http://www.w3.org/TR/2001/REC-SVG-20010904/DTD/svg10.dtd">
<svg version="1.0" xmlns="http://www.w3.org/2000/svg"
 width="16.000000pt" height="16.000000pt" viewBox="0 0 16.000000 16.000000"
 preserveAspectRatio="xMidYMid meet">
<metadata>
Created by potrace 1.11, written by Peter Selinger 2001-2013
</metadata>
<g transform="translate(0.000000,16.000000) scale(0.006154,-0.006154)"
fill="#000000" stroke="none">
<path d="M0 1301 l0 -1301 405 0 405 0 0 475 0 475 245 0 245 0 0 -475 0 -475
203 2 202 3 1 240 c1 132 2 250 3 263 1 18 7 22 36 22 55 0 102 -29 139 -85
30 -46 51 -82 154 -275 19 -36 48 -89 64 -117 l29 -53 225 0 c147 0 224 4 224
10 0 6 -15 39 -34 73 -18 34 -64 120 -101 191 -88 171 -143 241 -217 276 l-56
27 52 16 c110 35 196 114 235 216 28 76 25 224 -7 293 -55 119 -150 180 -312
201 -19 3 -36 6 -38 6 -2 1 6 16 17 34 86 140 124 379 95 602 -39 301 -206
511 -475 599 -42 13 -92 27 -110 30 -19 3 -45 9 -59 13 -14 4 -373 8 -797 10
l-773 4 0 -1300z m1236 745 c128 -41 195 -134 195 -275 1 -121 -71 -218 -192
-260 -54 -19 -93 -24 -246 -28 l-183 -6 0 298 0 297 188 -5 c134 -3 201 -9
238 -21z m782 -1021 c54 -32 71 -102 40 -164 -28 -57 -74 -73 -228 -79 l-125
-4 1 93 c3 155 -1 143 47 161 59 24 220 19 265 -7z"/>
</g>
</svg>
